<svg xmlns:xlink="http://www.w3.org/1999/xlink" xmlns="http://www.w3.org/2000/svg" title="" class="o-icon -arrow-right -xs-size-small -color-extra-dark -spaced-no" width="24"  height="24" ><defs><symbol viewBox="0 0 24 24" id="icon-arrow-right"><g fill="none" fill-rule="evenodd"><path d="m15 8.5c-.132-.002-.258-.056-.35-.15l-6.65-6.64-6.65 6.64c-.196.196-.514.196-.71 0-.196-.196-.196-.514 0-.71l7-7c.094-.095.222-.148.355-.148.133 0 .261.053.355.148l7 7c.14.143.181.355.105.54-.076.185-.255.307-.455.31v.01" transform="matrix(0 1-1 0 16.5 4.5)" fill="currentColor" fill-rule="nonzero"></path></g></symbol></defs>
  &gt;
  <!----> <use xlink:href="#icon-arrow-right" fill="#222222"></use></svg>